<svg width="281" height="338" viewBox="0 0 281 338" fill="none" xmlns="http://www.w3.org/2000/svg">
<path fill-rule="evenodd" clip-rule="evenodd" d="M88.2397 270.795C16.3417 241.998 -18.7238 160.119 10.0732 88.2348C38.8702 16.3368 120.746 -18.7167 192.644 10.0683C264.481 38.8638 299.546 120.756 270.8 192.641C242.002 264.476 160.124 299.541 88.2397 270.795ZM29.3334 109.149C26.6451 108.51 23.9286 110.215 23.2818 112.915C23.2764 112.961 23.2846 113.02 23.2931 113.082C23.3029 113.154 23.3131 113.228 23.3032 113.288C16.4023 143.166 20.7908 175.704 38.2521 203.801C39.7335 206.167 42.806 206.855 45.1424 205.416C47.5078 203.935 48.2447 200.883 46.7524 198.509C30.7326 172.621 26.6679 142.689 33.089 115.197C33.6876 112.477 32.0229 109.788 29.3334 109.149ZM48.8714 113.733C51.6008 114.339 53.2353 117.068 52.5953 119.756L52.6363 119.786C47.3571 142.235 50.6661 166.74 63.8461 187.923C65.3275 190.288 64.5784 193.379 62.2411 194.82C59.8756 196.301 56.7746 195.545 55.2932 193.18C40.8064 169.82 37.1074 142.711 42.838 117.808C42.8676 117.718 42.859 117.65 42.8509 117.587C42.8454 117.543 42.8401 117.501 42.8476 117.456C43.4982 114.774 46.1819 113.093 48.8714 113.733ZM68.4012 118.263C65.6894 117.653 62.9943 119.33 62.3944 122.048C62.3575 122.099 62.3638 122.156 62.3686 122.2C62.3715 122.227 62.3739 122.249 62.3655 122.26C57.7641 142.221 60.7163 163.911 72.357 182.637C73.7964 184.973 76.8986 185.73 79.2653 184.25C81.6014 182.808 82.3094 179.687 80.8691 177.351C70.6192 160.861 68.0646 141.782 72.1647 124.3C72.8132 121.618 71.1297 118.933 68.4012 118.263ZM84.5662 118.059C96.9022 87.2058 131.917 72.2238 162.77 84.5613C193.672 96.8973 208.655 131.961 196.268 162.815C183.919 193.668 148.904 208.649 118.064 196.262C87.2107 183.927 72.2167 148.911 84.5662 118.059ZM125.5 177.659C104.99 169.422 94.9973 146.015 103.171 125.505C111.394 104.982 134.8 94.9413 155.323 103.166C175.895 111.402 185.887 134.808 177.701 155.318C169.427 175.841 146.072 185.882 125.5 177.659ZM147.875 121.782C137.596 117.671 125.938 122.66 121.825 132.941C117.662 143.234 122.716 154.929 132.944 159.041C143.225 163.154 154.934 158.163 159.046 147.884C163.159 137.591 158.168 125.945 147.875 121.782ZM131.09 136.713C129.071 141.854 131.578 147.683 136.718 149.739C141.809 151.796 147.688 149.301 149.744 144.161C151.801 139.02 149.306 133.142 144.166 131.085C139.012 129.078 133.195 131.574 131.09 136.713ZM201.778 96.3745C204.122 94.9242 207.206 95.6197 208.686 97.9843C220.264 116.71 223.215 138.403 218.645 158.324C218.641 158.351 218.639 158.373 218.64 158.392C218.64 158.402 218.641 158.411 218.642 158.419C218.643 158.43 218.645 158.44 218.646 158.449C218.648 158.461 218.65 158.472 218.651 158.485C218.654 158.51 218.654 158.538 218.647 158.575C218.008 161.263 215.32 162.928 212.601 162.328C209.913 161.689 208.237 158.993 208.877 156.305C212.938 138.81 210.361 119.762 200.174 103.273C198.692 100.907 199.412 97.8559 201.778 96.3745ZM218.809 85.791C216.444 87.2724 215.717 90.3336 217.198 92.7002C230.327 113.845 233.645 138.357 228.385 160.867L228.414 160.827C227.745 163.557 229.451 166.275 232.139 166.914C234.869 167.52 237.546 165.847 238.145 163.13C238.176 163.025 238.165 162.956 238.144 162.816C243.902 137.872 240.237 110.803 225.709 87.4162C224.258 85.0717 221.146 84.3516 218.809 85.791ZM234.216 82.109C232.777 79.7726 233.496 76.657 235.832 75.2176C238.169 73.7769 241.29 74.4862 242.729 76.8226C260.143 104.899 264.601 137.425 257.7 167.307C257.66 167.447 257.672 167.581 257.693 167.719C257.053 170.408 254.366 172.074 251.647 171.474C248.957 170.834 247.286 168.156 247.892 165.428C254.354 137.964 250.27 107.974 234.216 82.109Z" fill="black"/>
<path d="M25.32 327V291.96H36.504L51.24 321.336H52.824L51.864 322.2V291.96H58.296V327H47.064L32.328 297.624H30.696L31.656 296.76V327H25.32Z" fill="black"/>
<path d="M78.945 327.912C76.641 327.912 74.609 327.544 72.849 326.808C71.089 326.072 69.601 325.08 68.385 323.832C67.169 322.552 66.241 321.112 65.601 319.512C64.993 317.912 64.689 316.248 64.689 314.52V313.512C64.689 311.72 65.009 310.024 65.649 308.424C66.321 306.792 67.265 305.352 68.481 304.104C69.729 302.824 71.233 301.832 72.993 301.128C74.753 300.392 76.737 300.024 78.945 300.024C81.153 300.024 83.137 300.392 84.897 301.128C86.657 301.832 88.145 302.824 89.361 304.104C90.609 305.352 91.553 306.792 92.193 308.424C92.833 310.024 93.153 311.72 93.153 313.512V314.52C93.153 316.248 92.833 317.912 92.193 319.512C91.585 321.112 90.673 322.552 89.457 323.832C88.241 325.08 86.753 326.072 84.993 326.808C83.233 327.544 81.217 327.912 78.945 327.912ZM78.945 322.2C80.577 322.2 81.953 321.848 83.073 321.144C84.193 320.408 85.041 319.432 85.617 318.216C86.193 316.968 86.481 315.56 86.481 313.992C86.481 312.392 86.177 310.984 85.569 309.768C84.993 308.52 84.129 307.544 82.977 306.84C81.857 306.104 80.513 305.736 78.945 305.736C77.377 305.736 76.017 306.104 74.865 306.84C73.745 307.544 72.881 308.52 72.273 309.768C71.665 310.984 71.361 312.392 71.361 313.992C71.361 315.56 71.649 316.968 72.225 318.216C72.833 319.432 73.697 320.408 74.817 321.144C75.937 321.848 77.313 322.2 78.945 322.2Z" fill="black"/>
<path d="M109.979 327V291.96H116.795V327H109.979Z" fill="black"/>
<path d="M125.011 327V300.936H130.291V312.12H129.811C129.811 309.496 130.147 307.304 130.819 305.544C131.491 303.752 132.483 302.408 133.795 301.512C135.139 300.584 136.803 300.12 138.787 300.12H139.075C141.091 300.12 142.755 300.584 144.067 301.512C145.411 302.408 146.403 303.752 147.043 305.544C147.715 307.304 148.051 309.496 148.051 312.12H146.371C146.371 309.496 146.707 307.304 147.379 305.544C148.083 303.752 149.091 302.408 150.403 301.512C151.747 300.584 153.411 300.12 155.395 300.12H155.683C157.699 300.12 159.379 300.584 160.723 301.512C162.067 302.408 163.075 303.752 163.747 305.544C164.451 307.304 164.803 309.496 164.803 312.12V327H158.131V311.496C158.131 309.864 157.715 308.568 156.883 307.608C156.051 306.616 154.867 306.12 153.331 306.12C151.795 306.12 150.563 306.632 149.635 307.656C148.707 308.648 148.243 309.992 148.243 311.688V327H141.571V311.496C141.571 309.864 141.155 308.568 140.323 307.608C139.491 306.616 138.307 306.12 136.771 306.12C135.235 306.12 134.003 306.632 133.075 307.656C132.147 308.648 131.683 309.992 131.683 311.688V327H125.011Z" fill="black"/>
<path d="M187.725 327V319.272H186.621V310.68C186.621 309.176 186.253 308.056 185.517 307.32C184.781 306.584 183.645 306.216 182.109 306.216C181.309 306.216 180.349 306.232 179.229 306.264C178.109 306.296 176.973 306.344 175.821 306.408C174.701 306.44 173.693 306.488 172.797 306.552V300.888C173.533 300.824 174.365 300.76 175.293 300.696C176.221 300.632 177.165 300.6 178.125 300.6C179.117 300.568 180.045 300.552 180.909 300.552C183.597 300.552 185.821 300.904 187.581 301.608C189.373 302.312 190.717 303.416 191.613 304.92C192.541 306.424 193.005 308.392 193.005 310.824V327H187.725ZM179.325 327.672C177.437 327.672 175.773 327.336 174.333 326.664C172.925 325.992 171.821 325.032 171.021 323.784C170.253 322.536 169.869 321.032 169.869 319.272C169.869 317.352 170.333 315.784 171.261 314.568C172.221 313.352 173.549 312.44 175.245 311.832C176.973 311.224 178.989 310.92 181.293 310.92H187.341V314.904H181.197C179.661 314.904 178.477 315.288 177.645 316.056C176.845 316.792 176.445 317.752 176.445 318.936C176.445 320.12 176.845 321.08 177.645 321.816C178.477 322.552 179.661 322.92 181.197 322.92C182.125 322.92 182.973 322.76 183.741 322.44C184.541 322.088 185.197 321.512 185.709 320.712C186.253 319.88 186.557 318.76 186.621 317.352L188.253 319.224C188.093 321.048 187.645 322.584 186.909 323.832C186.205 325.08 185.213 326.04 183.933 326.712C182.685 327.352 181.149 327.672 179.325 327.672Z" fill="black"/>
<path d="M210.327 337.272C209.079 337.272 207.799 337.224 206.487 337.128C205.207 337.032 204.007 336.904 202.887 336.744V331.176C204.039 331.304 205.271 331.416 206.583 331.512C207.895 331.64 209.127 331.704 210.279 331.704C212.423 331.704 214.151 331.448 215.463 330.936C216.807 330.424 217.783 329.608 218.391 328.488C219.031 327.4 219.351 326.008 219.351 324.312V319.176L220.791 315.912C220.695 318.312 220.199 320.36 219.303 322.056C218.407 323.72 217.191 325 215.655 325.896C214.119 326.76 212.343 327.192 210.327 327.192C208.535 327.192 206.903 326.856 205.431 326.184C203.991 325.512 202.743 324.584 201.687 323.4C200.663 322.216 199.863 320.824 199.287 319.224C198.711 317.624 198.423 315.912 198.423 314.088V313.08C198.423 311.256 198.711 309.56 199.287 307.992C199.895 306.392 200.743 305 201.831 303.816C202.919 302.632 204.215 301.72 205.719 301.08C207.223 300.44 208.887 300.12 210.711 300.12C212.855 300.12 214.711 300.584 216.279 301.512C217.879 302.44 219.127 303.784 220.023 305.544C220.919 307.304 221.415 309.464 221.511 312.024L220.359 312.216V300.936H225.639V323.928C225.639 327.096 225.095 329.656 224.007 331.608C222.919 333.56 221.239 334.984 218.967 335.88C216.727 336.808 213.847 337.272 210.327 337.272ZM212.247 321.48C213.527 321.48 214.695 321.192 215.751 320.616C216.807 320.04 217.655 319.208 218.295 318.12C218.935 317.032 219.255 315.72 219.255 314.184V312.504C219.255 311.032 218.919 309.784 218.247 308.76C217.607 307.736 216.759 306.968 215.703 306.456C214.647 305.912 213.495 305.64 212.247 305.64C210.839 305.64 209.591 305.976 208.503 306.648C207.447 307.288 206.615 308.2 206.007 309.384C205.399 310.568 205.095 311.976 205.095 313.608C205.095 315.208 205.399 316.6 206.007 317.784C206.615 318.968 207.447 319.88 208.503 320.52C209.591 321.16 210.839 321.48 212.247 321.48Z" fill="black"/>
<path d="M244.581 327.912C242.341 327.912 240.373 327.528 238.677 326.76C237.013 325.992 235.621 324.968 234.501 323.688C233.413 322.376 232.581 320.92 232.005 319.32C231.461 317.72 231.189 316.088 231.189 314.424V313.512C231.189 311.784 231.461 310.12 232.005 308.52C232.581 306.888 233.413 305.448 234.501 304.2C235.621 302.92 236.997 301.912 238.629 301.176C240.261 300.408 242.149 300.024 244.293 300.024C247.109 300.024 249.461 300.648 251.349 301.896C253.269 303.112 254.709 304.728 255.669 306.744C256.629 308.728 257.109 310.872 257.109 313.176V315.576H234.021V311.496H252.933L250.869 313.512C250.869 311.848 250.629 310.424 250.149 309.24C249.669 308.056 248.933 307.144 247.941 306.504C246.981 305.864 245.765 305.544 244.293 305.544C242.821 305.544 241.573 305.88 240.549 306.552C239.525 307.224 238.741 308.2 238.197 309.48C237.685 310.728 237.429 312.232 237.429 313.992C237.429 315.624 237.685 317.08 238.197 318.36C238.709 319.608 239.493 320.6 240.549 321.336C241.605 322.04 242.949 322.392 244.581 322.392C246.213 322.392 247.541 322.072 248.565 321.432C249.589 320.76 250.245 319.944 250.533 318.984H256.677C256.293 320.776 255.557 322.344 254.469 323.688C253.381 325.032 251.989 326.072 250.293 326.808C248.629 327.544 246.725 327.912 244.581 327.912Z" fill="black"/>
</svg>
